<?xml version="1.0" ?><svg viewBox="0 0 64 64" xmlns="http://www.w3.org/2000/svg"><defs><style>.cls-1{fill:#ccc;}.cls-2{fill:#e6e6e6;}.cls-3{fill:#89a42a;}.cls-4{fill:#b6db38;}.cls-5{fill:#c69c6d;}.cls-6{fill:#737373;}.cls-7{fill:#999;}.cls-8{fill:#fc9857;}.cls-9{fill:#666;}.cls-10{fill:#fb7e2d;}.cls-11{fill:#bc5f22;}</style></defs><title/><g data-name="Layer 26" id="Layer_26"><rect class="cls-1" height="56" width="34" x="2" y="6"/><rect class="cls-2" height="56" width="31" x="2" y="6"/><path class="cls-3" d="M14.5,24.5h0A5.12,5.12,0,0,1,13,20.88V20h.88a5.12,5.12,0,0,1,3.62,1.5h0A5.12,5.12,0,0,1,19,25.12V26h-.88A5.12,5.12,0,0,1,14.5,24.5Z"/><path class="cls-4" d="M16,25.12a5.12,5.12,0,0,0-1.5-3.62,5,5,0,0,0-1.5-1v.4a5.12,5.12,0,0,0,1.5,3.62,5,5,0,0,0,1.5,1Z"/><path class="cls-5" d="M20,27H18V25.47a8.17,8.17,0,0,1,4.55-7.36l.9,1.78A6.21,6.21,0,0,0,20,25.47Z"/><polyline class="cls-6" points="24 6 24 2 34 2 34 6"/><rect class="cls-7" height="4" width="7" x="24" y="2"/><rect class="cls-7" height="10" width="34" x="2" y="6"/><rect class="cls-1" height="10" width="31" x="2" y="6"/><rect class="cls-7" height="10" width="34" x="2" y="52"/><rect class="cls-1" height="10" width="31" x="2" y="52"/><circle class="cls-8" cx="19" cy="37" r="11"/><polyline class="cls-9" points="60 28 60 18 56 18 56 28"/><rect class="cls-7" height="10" width="2" x="56" y="18"/><path class="cls-1" d="M40,28H62a0,0,0,0,1,0,0V60a2,2,0,0,1-2,2H42a2,2,0,0,1-2-2V28A0,0,0,0,1,40,28Z"/><path class="cls-2" d="M59,60V28H40V60a2,2,0,0,0,2,2H57A2,2,0,0,0,59,60Z"/><path class="cls-10" d="M62,38l-1.29-1.29A2.41,2.41,0,0,0,59,36h0a2.41,2.41,0,0,0-1.71.71l-.58.58A2.41,2.41,0,0,1,55,38h0a2.41,2.41,0,0,1-1.71-.71l-.58-.58A2.41,2.41,0,0,0,51,36h0a2.41,2.41,0,0,0-1.71.71l-.58.58A2.41,2.41,0,0,1,47,38h0a2.41,2.41,0,0,1-1.71-.71l-.58-.58A2.41,2.41,0,0,0,43,36h0a2.41,2.41,0,0,0-1.71.71L40,38V58H62Z"/><path class="cls-8" d="M57.29,36.71l-.58.58a2.41,2.41,0,0,1-3.42,0l-.58-.58a2.41,2.41,0,0,0-3.42,0l-.58.58a2.41,2.41,0,0,1-3.42,0l-.58-.58a2.41,2.41,0,0,0-3.42,0L40,38V58H59V36A2.41,2.41,0,0,0,57.29,36.71Z"/><path class="cls-11" d="M27,37H25a6,6,0,0,0-6-6V29A8,8,0,0,1,27,37Z"/></g></svg>