<?xml version="1.0" encoding="UTF-8" standalone="no"?>
<svg
   width="64pt"
   height="64pt"
   viewBox="0 0 22.577778 22.577778"
   version="1.1"
   id="svg831"
   inkscape:version="1.1.1 (1:1.1+202109281949+c3084ef5ed)"
   sodipodi:docname="10 - Coffee Grinder.svg"
   inkscape:export-filename="/media/taufikramadhan/Data/Tr Design Studio/Project Design/TR Creative Design/Icon Design/Project Hiring/Icon Icons/013 - Drinks And Restaurants/Send/4 - Filledline/10 - Coffee Grinder.png"
   inkscape:export-xdpi="576"
   inkscape:export-ydpi="576"
   xmlns:inkscape="http://www.inkscape.org/namespaces/inkscape"
   xmlns:sodipodi="http://sodipodi.sourceforge.net/DTD/sodipodi-0.dtd"
   xmlns="http://www.w3.org/2000/svg"
   xmlns:svg="http://www.w3.org/2000/svg"
   xmlns:rdf="http://www.w3.org/1999/02/22-rdf-syntax-ns#"
   xmlns:cc="http://creativecommons.org/ns#"
   xmlns:dc="http://purl.org/dc/elements/1.1/">
  <defs
     id="defs825">
    <pattern
       id="EMFhbasepattern"
       patternUnits="userSpaceOnUse"
       width="6"
       height="6"
       x="0"
       y="0" />
    <pattern
       id="EMFhbasepattern-9"
       patternUnits="userSpaceOnUse"
       width="6"
       height="6"
       x="0"
       y="0" />
    <pattern
       id="EMFhbasepattern-0"
       patternUnits="userSpaceOnUse"
       width="6"
       height="6"
       x="0"
       y="0" />
    <pattern
       id="EMFhbasepattern-7"
       patternUnits="userSpaceOnUse"
       width="6"
       height="6"
       x="0"
       y="0" />
    <pattern
       id="EMFhbasepattern-2"
       patternUnits="userSpaceOnUse"
       width="6"
       height="6"
       x="0"
       y="0" />
    <pattern
       id="EMFhbasepattern-98"
       patternUnits="userSpaceOnUse"
       width="6"
       height="6"
       x="0"
       y="0" />
    <pattern
       id="EMFhbasepattern-6"
       patternUnits="userSpaceOnUse"
       width="6"
       height="6"
       x="0"
       y="0" />
    <pattern
       id="EMFhbasepattern-01"
       patternUnits="userSpaceOnUse"
       width="6"
       height="6"
       x="0"
       y="0" />
    <pattern
       id="EMFhbasepattern-07"
       patternUnits="userSpaceOnUse"
       width="6"
       height="6"
       x="0"
       y="0" />
    <pattern
       id="EMFhbasepattern-8"
       patternUnits="userSpaceOnUse"
       width="6"
       height="6"
       x="0"
       y="0" />
    <pattern
       id="EMFhbasepattern-4"
       patternUnits="userSpaceOnUse"
       width="6"
       height="6"
       x="0"
       y="0" />
    <pattern
       id="EMFhbasepattern-40"
       patternUnits="userSpaceOnUse"
       width="6"
       height="6"
       x="0"
       y="0" />
    <pattern
       id="EMFhbasepattern-08"
       patternUnits="userSpaceOnUse"
       width="6"
       height="6"
       x="0"
       y="0" />
    <pattern
       id="EMFhbasepattern-04"
       patternUnits="userSpaceOnUse"
       width="6"
       height="6"
       x="0"
       y="0" />
    <pattern
       id="EMFhbasepattern-014"
       patternUnits="userSpaceOnUse"
       width="6"
       height="6"
       x="0"
       y="0" />
    <pattern
       id="EMFhbasepattern-27"
       patternUnits="userSpaceOnUse"
       width="6"
       height="6"
       x="0"
       y="0" />
    <pattern
       id="EMFhbasepattern-09"
       patternUnits="userSpaceOnUse"
       width="6"
       height="6"
       x="0"
       y="0" />
    <pattern
       id="EMFhbasepattern-5"
       patternUnits="userSpaceOnUse"
       width="6"
       height="6"
       x="0"
       y="0" />
    <pattern
       id="EMFhbasepattern-018"
       patternUnits="userSpaceOnUse"
       width="6"
       height="6"
       x="0"
       y="0" />
  </defs>
  <sodipodi:namedview
     id="base"
     pagecolor="#ffffff"
     bordercolor="#666666"
     borderopacity="1.0"
     inkscape:pageopacity="0.0"
     inkscape:pageshadow="2"
     inkscape:zoom="6.0703125"
     inkscape:cx="42.666667"
     inkscape:cy="42.666667"
     inkscape:document-units="pt"
     inkscape:current-layer="layer1"
     showgrid="false"
     units="pt"
     inkscape:window-width="1366"
     inkscape:window-height="705"
     inkscape:window-x="0"
     inkscape:window-y="31"
     inkscape:window-maximized="1"
     inkscape:pagecheckerboard="true"
     inkscape:showpageshadow="false"
     inkscape:object-paths="true"
     inkscape:snap-intersection-paths="true"
     inkscape:snap-smooth-nodes="true"
     inkscape:snap-midpoints="true"
     showguides="true"
     inkscape:snap-bbox="true"
     inkscape:bbox-nodes="true"
     inkscape:snap-nodes="false"
     inkscape:snap-global="true"
     inkscape:document-rotation="0">
    <inkscape:grid
       type="xygrid"
       id="grid1378" />
    <sodipodi:guide
       position="0.97013831,21.607643"
       orientation="78.000048,0"
       id="guide1380"
       inkscape:locked="false" />
    <sodipodi:guide
       position="0.97013831,0.97013129"
       orientation="0,78.000005"
       id="guide1382"
       inkscape:locked="false" />
    <sodipodi:guide
       position="21.607639,0.97013129"
       orientation="-78.000048,0"
       id="guide1384"
       inkscape:locked="false" />
    <sodipodi:guide
       position="21.607639,21.607643"
       orientation="0,-78.000005"
       id="guide1386"
       inkscape:locked="false" />
  </sodipodi:namedview>
  <metadata
     id="metadata828">
    <rdf:RDF>
      <cc:Work
         rdf:about="">
        <dc:format>image/svg+xml</dc:format>
        <dc:type
           rdf:resource="http://purl.org/dc/dcmitype/StillImage" />
      </cc:Work>
    </rdf:RDF>
  </metadata>
  <g
     inkscape:label="Icon"
     inkscape:groupmode="layer"
     id="layer1"
     transform="translate(0,-274.42223)">
    <g
       id="g27819"
       style="display:inline;stroke-width:0.794883"
       transform="matrix(1.2580461,0,0,1.2580461,-37.73681,-77.278254)">
      <g
         id="g874489"
         style="display:inline;stroke-width:0.794883">
        <path
           style="color:#000000;fill:#3a4d5c;stroke-width:0.794883;stroke-linecap:round;stroke-linejoin:round;-inkscape-stroke:none"
           d="m 36.191406,280.33203 c -0.254997,0 -0.493889,0.0995 -0.669922,0.26758 -0.176032,0.16811 -0.290202,0.42112 -0.253906,0.69336 l 0.265625,1.98437 a 0.26460996,0.26460996 0 0 0 0.261719,0.22852 h 0.792969 a 0.26460996,0.26460996 0 0 0 0.261718,-0.22852 l 0.265625,-1.98437 c 0.0363,-0.27224 -0.07787,-0.52525 -0.253906,-0.69336 -0.176033,-0.16811 -0.414924,-0.26758 -0.669922,-0.26758 z"
           id="path778542" />
        <path
           style="color:#000000;fill:#3a4d5c;fill-opacity:1;stroke-width:0.794883;stroke-linecap:round;stroke-linejoin:round;-inkscape-stroke:none"
           d="m 35,282.97656 c -0.288576,0 -0.529297,0.24072 -0.529297,0.5293 v 0.79492 a 0.26460996,0.26460996 0 0 0 0.265625,0.26367 h 2.910156 a 0.26460996,0.26460996 0 0 0 0.265625,-0.26367 v -0.79492 c 0,-0.28858 -0.24072,-0.5293 -0.529297,-0.5293 z"
           id="path778548" />
        <path
           style="color:#000000;fill:#3a4d5c;stroke-width:0.794883;stroke-linecap:round;stroke-linejoin:round;-inkscape-stroke:none"
           d="m 33.148437,284.03516 a 0.26460996,0.26460996 0 0 0 -0.263671,0.26562 v 0.79297 c 0,1.4581 1.186423,2.64648 2.644531,2.64648 h 1.324219 c 1.458108,0 2.644531,-1.18838 2.644531,-2.64648 v -0.79297 a 0.26460996,0.26460996 0 0 0 -0.263672,-0.26562 z"
           id="path778554" />
        <path
           style="color:#000000;fill:#9a605a;stroke-width:0.794883;stroke-linecap:round;stroke-linejoin:round;-inkscape-stroke:none"
           d="m 32.089844,288.26953 a 0.26460996,0.26460996 0 0 0 -0.263672,0.26367 v 6.87891 a 0.26460996,0.26460996 0 0 0 0.263672,0.26562 h 8.203125 a 0.26460996,0.26460996 0 0 0 0.263672,-0.26562 v -6.87891 a 0.26460996,0.26460996 0 0 0 -0.263672,-0.26367 z"
           id="path778560" />
        <path
           style="color:#000000;fill:#ebc8b6;fill-opacity:1;stroke-width:0.794883;stroke-linecap:round;stroke-linejoin:round;-inkscape-stroke:none"
           d="m 37.982422,290.07812 c -0.06128,-0.42898 -0.431903,-0.75195 -0.865235,-0.75195 h -1.851562 c -0.433331,0 -0.803953,0.32297 -0.865234,0.75195 l -0.115235,0.53906 c -0.06159,0.43114 0.279325,0.82617 0.714844,0.82617 h 2.382812 c 0.43552,0 0.77644,-0.39503 0.714844,-0.82617 z"
           id="path778566"
           sodipodi:nodetypes="cssccsscc" />
        <path
           style="color:#000000;fill:#e2f0fa;stroke-width:0.794883;stroke-linecap:round;stroke-linejoin:round;-inkscape-stroke:none"
           d="m 43.996094,295.41211 a 0.2645835,0.2645835 0 0 1 -0.263672,-0.26367 0.2645835,0.2645835 0 0 1 0.263672,-0.26367 h 0.529297 c 0.07463,0 0.212025,-0.0362 0.320312,-0.14453 0.108287,-0.10829 0.208984,-0.29353 0.208984,-0.65039 0,-0.35686 -0.100697,-0.54211 -0.208984,-0.65039 -0.108287,-0.10829 -0.245683,-0.14258 -0.320312,-0.14258 h -0.683594 a 0.2645835,0.2645835 0 0 1 -0.263672,-0.26563 0.2645835,0.2645835 0 0 1 0.263672,-0.26367 h 0.683594 c 0.217622,0 0.477832,0.0833 0.693359,0.29883 0.215527,0.21552 0.365234,0.55889 0.365234,1.02344 0,0.46455 -0.149708,0.80986 -0.365234,1.02539 -0.215526,0.21552 -0.475737,0.29687 -0.693359,0.29687 z"
           id="path163592" />
        <path
           style="color:#000000;fill:#66342d;stroke-width:0.794883;stroke-linecap:round;stroke-linejoin:round;-inkscape-stroke:none"
           d="m 33.148437,291.97266 a 0.26460996,0.26460996 0 0 0 -0.263671,0.26562 v 3.17383 a 0.26460996,0.26460996 0 0 0 0.263671,0.26562 h 6.085938 a 0.26460996,0.26460996 0 0 0 0.263672,-0.26562 v -3.17383 a 0.26460996,0.26460996 0 0 0 -0.263672,-0.26562 z"
           id="path778576" />
        <path
           style="color:#000000;fill:#ebc8b6;fill-opacity:1;stroke-width:0.794883;stroke-linecap:round;stroke-linejoin:round;-inkscape-stroke:none"
           d="m 36.191406,293.03125 c -0.435242,0 -0.792969,0.35773 -0.792969,0.79297 0,0.43524 0.357727,0.79492 0.792969,0.79492 0.435242,0 0.792969,-0.35968 0.792969,-0.79492 0,-0.43524 -0.357727,-0.79297 -0.792969,-0.79297 z"
           id="path778582" />
        <path
           style="color:#000000;fill:#66342d;stroke-width:0.794883;stroke-linecap:round;stroke-linejoin:round;-inkscape-stroke:none"
           d="m 42.011719,280.5957 c -0.288589,0 -0.529297,0.24072 -0.529297,0.5293 v 0.5293 c 0,0.28858 0.240708,0.52929 0.529297,0.52929 h 0.132812 v 1.0586 c 0,0.14456 0.04091,0.3047 0.160156,0.47265 0.119242,0.16796 0.345206,0.32032 0.632813,0.32032 0.287607,0 0.515524,-0.15236 0.634766,-0.32032 0.119241,-0.16795 0.160156,-0.32809 0.160156,-0.47265 v -1.0586 h 0.132812 c 0.288589,0 0.527344,-0.24071 0.527344,-0.52929 v -0.5293 c 0,-0.28858 -0.238755,-0.5293 -0.527344,-0.5293 z"
           id="path791491" />
        <path
           style="color:#000000;fill:#3a4d5c;fill-opacity:1;stroke-width:0.794883;stroke-linecap:round;stroke-linejoin:round;-inkscape-stroke:none"
           d="m 42.011719,280.5957 c -0.288589,0 -0.529297,0.24072 -0.529297,0.5293 v 0.5293 c 0,0.28858 0.240708,0.52929 0.529297,0.52929 h 0.132812 v 1.0586 c 0,0.14456 0.04091,0.3047 0.160156,0.47265 0.119242,0.16796 0.345206,0.32032 0.632813,0.32032 0.287607,0 0.515524,-0.15236 0.634766,-0.32032 0.119241,-0.16795 0.160156,-0.32809 0.160156,-0.47265 v -1.0586 h 0.132812 c 0.288589,0 0.527344,-0.24071 0.527344,-0.52929 v -0.5293 c 0,-0.28858 -0.238755,-0.5293 -0.527344,-0.5293 z"
           id="path778592" />
        <path
           style="color:#000000;fill:#ebc8b6;fill-opacity:1;stroke-width:0.794883;stroke-linecap:round;stroke-linejoin:round;-inkscape-stroke:none"
           d="m 31.560547,287.21094 a 0.26460996,0.26460996 0 0 0 -0.263672,0.26367 v 0.5293 a 0.26460996,0.26460996 0 0 0 0.02734,0.11914 l 0.265625,0.52929 a 0.26460996,0.26460996 0 0 0 0.236328,0.14649 h 4.365234 4.365235 a 0.26460996,0.26460996 0 0 0 0.236328,-0.14649 l 0.265625,-0.52929 a 0.26460996,0.26460996 0 0 0 0.02734,-0.11914 v -0.5293 a 0.26460996,0.26460996 0 0 0 -0.263671,-0.26367 z"
           id="path778598" />
        <path
           style="color:#000000;fill:#ebc8b6;fill-opacity:1;stroke-width:0.794883;stroke-linecap:round;stroke-linejoin:round;-inkscape-stroke:none"
           d="m 31.826172,295.14844 c -0.100148,1.7e-4 -0.191619,0.0569 -0.236328,0.14648 l -0.265625,0.5293 c -0.01799,0.0365 -0.02735,0.0765 -0.02734,0.11719 v 0.52929 c -5.64e-4,0.14617 0.117499,0.26511 0.263672,0.26563 h 9.261719 c 0.146172,-5.2e-4 0.264235,-0.11946 0.263671,-0.26563 v -0.52929 c 8e-6,-0.0406 -0.0093,-0.0807 -0.02734,-0.11719 l -0.265625,-0.5293 c -0.04471,-0.0896 -0.13618,-0.14631 -0.236328,-0.14648 -2.910159,0 -5.820317,0 -8.730476,0 z"
           id="path778604"
           sodipodi:nodetypes="ccccccccccccc" />
        <path
           style="color:#000000;fill:#e2f0fa;stroke-width:0.794883;stroke-linecap:round;stroke-linejoin:round;-inkscape-stroke:none"
           d="m 39.902451,292.40685 c -0.402623,0 -0.735341,0.33092 -0.735341,0.73354 v 1.22316 c 0,1.21365 0.990562,2.20421 2.204215,2.20421 h 0.489625 c 1.213653,0 2.20241,-0.99056 2.20241,-2.20421 v -1.22316 c 0,-0.40262 -0.332719,-0.73354 -0.735341,-0.73354 z"
           id="path778626" />
        <path
           id="path798288"
           style="color:#000000;fill:#143441;fill-opacity:1;stroke-width:0.794883;stroke-linecap:round;stroke-linejoin:round;-inkscape-stroke:none"
           d="m 43.335857,280.59583 c 0.288589,0 0.527616,0.24058 0.527616,0.52916 v 0.52917 c 0,0.28858 -0.239027,0.52968 -0.527616,0.52968 h -0.132808 v 1.05834 c 0,0.14456 -0.04095,0.30489 -0.160197,0.47284 -0.07962,0.11215 -0.207539,0.21739 -0.369486,0.27491 0.08018,0.0285 0.168686,0.0455 0.264065,0.0455 0.287608,0 0.515345,-0.15243 0.634587,-0.32039 0.119243,-0.16795 0.160198,-0.32828 0.160198,-0.47284 v -1.05834 h 0.132807 c 0.288589,0 0.527617,-0.2411 0.527617,-0.52968 v -0.52917 c 0,-0.28858 -0.239028,-0.52916 -0.527617,-0.52916 z" />
        <path
           id="path802584"
           style="color:#000000;fill:#d0ad9b;fill-opacity:1;stroke-width:0.794883;stroke-linecap:round;stroke-linejoin:round;-inkscape-stroke:none"
           d="m 31.560348,287.21093 c -0.145313,5.8e-4 -0.262969,0.11824 -0.26355,0.26355 v 0.26561 h 8.99635 c 0.145314,5.8e-4 0.262971,0.11824 0.263552,0.26355 0.01826,0.21458 -0.0041,0.44981 -0.02739,0.64854 l -0.0739,0.14676 h 0.10129 c 0.10015,-2.9e-4 0.191555,-0.0571 0.236159,-0.14676 l 0.265618,-0.52916 c 0.01826,-0.0369 0.02764,-0.0777 0.02739,-0.11886 v -0.52968 c -5.81e-4,-0.14531 -0.118237,-0.26297 -0.263551,-0.26355 z"
           sodipodi:nodetypes="cccccccccccccc" />
      </g>
      <path
         id="rect155475"
         style="color:#000000;fill:#000000;stroke-width:3.00429;stroke-linecap:round;stroke-linejoin:round;-inkscape-stroke:none"
         d="m 134.25391,2.0136719 c -0.66532,0.6353763 -1.09617,1.5921552 -0.95899,2.6210937 L 133.47852,6 h -1.19532 c -0.54959,0.00189 -0.9942,0.4484658 -0.99609,0.9980469 -0.002,0.5524535 0.44362,1.0020165 0.99609,1.0039062 h 1.46289 l 0.40039,2.9960939 h -1.86328 c -1.09068,0 -2,0.909304 -2,2 V 15 h -5.99414 c -0.55534,-0.0022 -1.00607,0.448569 -1.0039,1.003906 0.002,0.552284 0.45162,0.998252 1.0039,0.996094 v 2 c 0,3.266115 1.5755,6.174762 4.00586,8.001953 h -9.01172 c -0.54921,0.0022 -0.99389,0.44688 -0.99609,0.996094 V 30 c -9.5e-4,0.155757 0.0345,0.309583 0.10351,0.449219 l 1.00391,2 c 0.16858,0.338912 0.51406,0.553605 0.89258,0.554687 v 23.998047 c -0.37809,7.12e-4 -0.72345,0.214582 -0.89258,0.552735 l -1.00391,2.001953 c -0.0681,0.137863 -0.10355,0.28958 -0.10351,0.443359 v 2 c -0.002,0.552262 0.44383,1.001695 0.99609,1.003906 h 23.00196 c 0.55534,0.0022 1.00607,-0.448569 1.0039,-1.003906 -0.002,-0.552284 -0.45162,-0.998252 -1.0039,-0.996094 h -21.99805 v -0.769531 l 0.62109,-1.232422 h 24.375 c 0.55534,0.0022 1.00608,-0.448565 1.00391,-1.003906 -0.002,-0.552288 -0.45162,-0.998257 -1.00391,-0.996094 H 126.28906 V 47 h 19.26758 c 0.5496,-0.0019 0.9942,-0.446513 0.99609,-0.996094 C 146.5549,45.451453 146.10911,45.00189 145.55664,45 h -20.27148 c -0.55245,0.002 -0.99821,0.451453 -0.9961,1.003906 v 10.998047 h -2 V 33.003906 h 28.9961 v 10.998047 c 0.002,0.552491 0.45141,1.000239 1.0039,0.998047 0.54961,-0.0019 0.99422,-0.448428 0.9961,-0.998047 V 33.003906 c 0.37852,-0.0011 0.72399,-0.215779 0.89257,-0.554687 l 1.00391,-2 c 0.069,-0.139635 0.10447,-0.293461 0.10352,-0.449219 v -2.001953 c -0.002,-0.549218 -0.44688,-0.993901 -0.9961,-0.996094 h -9.01172 C 147.70837,25.174815 149.2832,22.266633 149.2832,19 v -2 c 0.55229,0.0022 1.00176,-0.443806 1.00391,-0.996094 0.002,-0.555341 -0.44857,-1.006081 -1.00391,-1.003906 h -5.99414 v -2.001953 c 0,-1.090696 -0.90931,-2 -2,-2 h -1.86328 l 0.40039,-2.9960939 h 2.1875 l 4.75977,2.8554689 c 0.15413,0.09146 0.33048,0.140247 0.50976,0.140625 h 12.00391 v 1.003906 c 0,0.546369 0.15477,1.152338 0.60547,1.787109 0.45068,0.63481 1.3036,1.210938 2.39062,1.210938 1.08702,0 1.94776,-0.576128 2.39844,-1.210938 0.45068,-0.634771 0.60547,-1.24074 0.60547,-1.787109 V 8.0019531 h 0.50195 c 1.09073,0 1.99414,-0.911257 1.99414,-2.0019531 V 4 c 0,-1.0906961 -0.90341,-2 -1.99414,-2 h -7.0039 c -1.09073,0 -2.00196,0.9093039 -2.00196,2 v 2 c 0,1.0906961 0.91123,2.0019531 2.00196,2.0019531 h 0.50195 V 8.9980469 H 147.56445 L 142.80273,6.140625 C 142.64645,6.0476486 142.46695,5.9988661 142.28516,6 h -2.19141 l 0.18359,-1.3652344 c 0.1372,-1.0289385 -0.29365,-1.9857174 -0.95898,-2.6210937 -0.66532,-0.6353764 -1.56748,-1.0097657 -2.56017,-0.9984362 -0.99268,0.011329 -1.85975,0.3830252 -2.50428,0.9984362 z m 2.5332,0.9902343 c 0.42123,0 0.85839,0.185699 1.14258,0.4570313 0.28418,0.2713701 0.40915,0.5642283 0.36328,0.9082031 L 138.07617,6 h -2.57812 l -0.2168,-1.6308594 c -0.0459,-0.343937 0.0771,-0.6367952 0.36133,-0.9082031 0.28418,-0.2713701 0.7233,-0.4570313 1.14453,-0.4570313 z M 158.78516,4 h 7.0039 v 2 h -1.50586 c -0.54997,0.0022 -0.99497,0.4480706 -0.99609,0.9980469 v 5.0039061 c 0,0.0076 -0.0751,0.399841 -0.23633,0.626953 -0.16123,0.22715 -0.3023,0.369141 -0.76758,0.369141 -0.46526,0 -0.59851,-0.141991 -0.75976,-0.369141 -0.16124,-0.227149 -0.23633,-0.621019 -0.23633,-0.626953 V 8.0019531 c 0.55228,-0.00216 0.99825,-0.4516213 0.99609,-1.0039062 C 162.28213,6.4480479 161.83711,6.0021498 161.28711,6 h -1.00391 -1.49804 z m -23.02149,4.0019531 h 2.04492 l -0.39843,2.9960939 h -1.24805 z m -3.48047,4.9960939 h 9.00586 V 15 H 132.2832 Z M 126.28906,17 h 20.99414 v 2 c 0,4.43006 -3.56407,8.001953 -7.99414,8.001953 h -5.00586 c -4.43007,0 -7.99414,-3.571893 -7.99414,-8.001953 z m -6.00195,12.001953 h 32.99805 v 0.761719 l -0.6211,1.240234 H 120.9082 l -0.62109,-1.240234 z m 51.99805,1.492188 c -0.55248,0.0019 -0.99827,0.451452 -0.9961,1.003906 0.002,0.549581 0.4465,0.994204 0.9961,0.996094 1.11518,0 2.00195,0.887609 2.00195,2 0,0.591911 -0.16897,0.92947 -0.50195,1.248047 -0.33298,0.318614 -0.88847,0.592294 -1.64649,0.759765 -1.85677,0.345827 -3.90412,0.104013 -5.60351,-0.265625 -0.85417,-0.185575 -1.62299,-0.39963 -2.24414,-0.576172 -1.22908,-0.369993 -2.48914,-0.464981 -3.60157,-0.486362 -2.74957,0 -4.99803,2.248479 -4.99804,4.998047 0,1.374803 0.55725,2.631471 1.46093,3.535156 0.39095,0.393035 1.02702,0.393035 1.41797,0 0.39303,-0.39095 0.39303,-1.027019 0,-1.417969 -0.54402,-0.544025 -0.8789,-1.282819 -0.8789,-2.117187 0,-1.596512 1.21664,-2.882047 2.7832,-2.990234 1.10092,-0.07802 2.34814,0.159632 3.26955,0.398416 0.62773,0.178394 1.44037,0.412588 2.36328,0.613281 1.84583,0.401462 4.14406,0.70729 6.42969,0.273438 0.98764,-0.313871 1.99329,-0.680376 2.63477,-1.277331 0.69413,-0.664063 1.11523,-1.630355 1.11523,-2.695312 0,-2.195226 -1.80343,-4 -4.00195,-4 z m -11.59571,1.322265 c -2.65179,0.03217 -4.3789,1.158203 -4.3789,1.158203 -0.45749,0.308235 -0.57897,0.92872 -0.27149,1.386719 0.30509,0.460857 0.92618,0.586824 1.38672,0.28125 0,0 1.98927,-1.388927 5.21875,-0.605469 0.5361,0.132672 1.07826,-0.194367 1.21094,-0.730468 0.13221,-0.538525 -0.19901,-1.081802 -0.73828,-1.210938 -0.86993,-0.211033 -1.68523,-0.288305 -2.42774,-0.279297 z m -17.13477,6.021485 c -0.23161,-1.621342 -1.63174,-2.841797 -3.26953,-2.841797 h -6.99804 c -1.63779,0 -3.03792,1.220455 -3.26953,2.841797 l -0.43555,2.03906 c -0.23278,1.629506 1.05512,3.121094 2.70117,3.121094 h 9.00586 c 1.64606,0 2.93398,-1.491588 2.70117,-3.121094 z m -1.54099,2.326175 c 0.0658,0.460423 -0.25951,0.833985 -0.72461,0.833985 h -9.00586 c -0.46511,0 -0.78843,-0.373638 -0.72265,-0.833985 l 0.43552,-2.044925 c 0.0901,-0.63046 0.60095,-1.092838 1.23047,-1.121094 h -5e-5 c 0.0203,-9.12e-4 0.04,0 0.0606,0 h 6.99805 c 0.6574,0 1.2,0.470297 1.29296,1.121094 z m 18.20892,-0.62891 c -0.22645,0.01224 -0.44202,0.101079 -0.61133,0.251953 -0.41655,0.367779 -0.45338,1.004624 -0.082,1.417969 0,0 1.47052,1.577351 4.11328,1.75 0.55266,0.03563 1.02903,-0.384701 1.0625,-0.9375 0.0368,-0.550542 -0.3792,-1.026889 -0.92969,-1.064453 -1.95386,-0.127748 -2.75391,-1.083984 -2.75391,-1.083984 -0.17624,-0.197246 -0.42344,-0.316635 -0.6875,-0.332032 -0.037,-0.0027 -0.0742,-0.0034 -0.11132,-0.002 z m -9.93555,6.46875 c -1.64502,0 -3.00391,1.351092 -3.00391,2.996094 v 4.998047 c 0,2.824813 1.31422,5.352347 3.36133,7.005859 h -4.35742 c -0.55227,-0.0021 -1.00171,0.443826 -1.00386,0.996094 -0.002,0.555341 0.44857,1.006081 1.00391,1.003906 h 23.00195 c 0.55229,-0.0022 0.99826,-0.451617 0.9961,-1.003906 -0.002,-0.54924 -0.44686,-0.993956 -0.9961,-0.996094 h -5.35742 c 1.0059,-0.813309 1.83396,-1.837909 2.41602,-3.005859 h 1.9375 c 0.8225,0 1.8065,-0.314305 2.62109,-1.128906 0.81459,-0.814564 1.37891,-2.111408 1.37891,-3.867188 0,-1.755779 -0.56432,-3.062351 -1.37891,-3.876953 -0.81459,-0.814564 -1.79859,-1.121094 -2.62109,-1.121094 h -1.17188 c -0.4164,-1.160446 -1.53411,-2 -2.83008,-2 z m 0,2 h 13.99609 c 0.56413,0 1.00391,0.431962 1.00391,0.996094 v 4.998047 c 0,3.877795 -3.12023,7.005859 -6.99805,7.005859 h -2 c -3.87782,0 -7.00586,-3.128064 -7.00586,-7.005859 V 49 c 0,-0.564132 0.43978,-0.996094 1.00391,-0.996094 z M 136.78711,49 c -1.64501,0 -2.99805,1.353045 -2.99805,2.998047 0,1.645001 1.35304,3.003906 2.99805,3.003906 1.64501,0 2.99609,-1.358905 2.99609,-3.003906 C 139.7832,50.353045 138.43212,49 136.78711,49 Z m 30.50195,0.996094 h 0.9961 c 0.28206,0 0.80166,0.137439 1.21093,0.546875 0.40928,0.409285 0.78907,1.110222 0.78907,2.458984 0,1.348762 -0.37979,2.047784 -0.78907,2.457031 -0.40927,0.409285 -0.92887,0.539063 -1.21093,0.539063 h -1.22266 c 0.14678,-0.643663 0.22656,-1.313008 0.22656,-2 z M 136.78711,51 c 0.56413,0 0.99609,0.433915 0.99609,0.998047 0,0.564132 -0.43196,1.003906 -0.99609,1.003906 -0.56413,0 -0.99805,-0.439774 -0.99805,-1.003906 0,-0.564132 0.43392,-0.998047 0.99805,-0.998047 z"
         transform="matrix(0.26458334,0,0,0.26458334,0,280.06666)"
         sodipodi:nodetypes="ccccccccssccscsccccccccccccccscccccsccccccccccccccccccccccscsccssccccccscssscsssssssscccccccsccscccccsscccccsssssccccccccccccccccccsssscccccccccccssccccscccscccccsccsccccccscssccsscccssccccssccccccccccccsssccsccscccssssscsssssssssssssssscscssscscsssss" />
    </g>
  </g>
</svg>
