<?xml version="1.0" encoding="UTF-8" standalone="no"?>
<!-- Created with Inkscape (http://www.inkscape.org/) -->

<svg
   xmlns:dc="http://purl.org/dc/elements/1.1/"
   xmlns:cc="http://creativecommons.org/ns#"
   xmlns:rdf="http://www.w3.org/1999/02/22-rdf-syntax-ns#"
   xmlns:svg="http://www.w3.org/2000/svg"
   xmlns="http://www.w3.org/2000/svg"
   xmlns:sodipodi="http://sodipodi.sourceforge.net/DTD/sodipodi-0.dtd"
   xmlns:inkscape="http://www.inkscape.org/namespaces/inkscape"
   width="5.3450389mm"
   height="10.317935mm"
   viewBox="0 0 5.3450392 10.317934"
   version="1.1"
   id="svg5889"
   inkscape:version="0.92.3 (2405546, 2018-03-11)"
   sodipodi:docname="bottle-milk.svg">
  <defs
     id="defs5883" />
  <sodipodi:namedview
     id="base"
     pagecolor="#ffffff"
     bordercolor="#666666"
     borderopacity="1.0"
     inkscape:pageopacity="0.0"
     inkscape:pageshadow="2"
     inkscape:zoom="3.06"
     inkscape:cx="50.150507"
     inkscape:cy="8.0962965"
     inkscape:document-units="mm"
     inkscape:current-layer="layer1"
     showgrid="false"
     fit-margin-top="1"
     fit-margin-bottom="1"
     fit-margin-right="1"
     fit-margin-left="1"
     inkscape:window-width="1853"
     inkscape:window-height="1025"
     inkscape:window-x="67"
     inkscape:window-y="27"
     inkscape:window-maximized="1" />
  <metadata
     id="metadata5886">
    <rdf:RDF>
      <cc:Work
         rdf:about="">
        <dc:format>image/svg+xml</dc:format>
        <dc:type
           rdf:resource="http://purl.org/dc/dcmitype/StillImage" />
        <dc:title></dc:title>
      </cc:Work>
    </rdf:RDF>
  </metadata>
  <g
     inkscape:label="Capa 1"
     inkscape:groupmode="layer"
     id="layer1"
     transform="translate(-92.564347,-113.28686)">
    <g
       transform="matrix(0.35277777,0,0,-0.35277777,79.336784,190.62638)"
       id="g10768">
      <g
         transform="translate(47.5811,212.5625)"
         id="g2772">
        <path
           inkscape:connector-curvature="0"
           id="path2774"
           style="fill:#96bdc2;fill-opacity:1;fill-rule:nonzero;stroke:none"
           d="m 0,0 v 1.244 h 0.112 c 0.275,0 0.497,0.222 0.497,0.496 v 1.596 c 0,0.274 -0.222,0.497 -0.497,0.497 h -2.199 c 0.275,0 0.497,-0.223 0.497,-0.497 V 1.74 c 0,-0.274 -0.222,-0.496 -0.497,-0.496 H -2.199 V 0 c 0.84,-0.377 2.231,-1.763 2.231,-3.838 v -1.223 h 0.872 c 0.274,0 0.497,-0.223 0.497,-0.496 v -0.047 -4.185 -7.505 c 0,-0.792 -0.642,-1.437 -1.436,-1.437 h -0.093 c -0.275,-0.6 -0.879,-1.014 -1.58,-1.014 H 0.49 c 0.962,0 1.741,0.779 1.741,1.741 V -3.838 C 2.231,-1.763 0.84,-0.377 0,0" />
      </g>
      <g
         transform="translate(47.4531,193.8311)"
         id="g2776">
        <path
           inkscape:connector-curvature="0"
           id="path2778"
           style="fill:#ccc1b8;fill-opacity:1;fill-rule:nonzero;stroke:none"
           d="m 0,0 h 0.093 c 0.794,0 1.436,0.646 1.436,1.437 v 7.505 4.186 0.047 c 0,0.272 -0.223,0.496 -0.497,0.496 H 0.16 V 0.728 C 0.16,0.467 0.102,0.222 0,0" />
      </g>
      <g
         transform="translate(47.4531,193.8311)"
         id="g2780">
        <path
           inkscape:connector-curvature="0"
           id="path2782"
           style="fill:#b5dfde;fill-opacity:1;fill-rule:nonzero;stroke:none"
           d="M 0,0 H -4.857 C -5.65,0 -6.294,0.646 -6.294,1.437 v 7.505 4.186 0.047 c 0,0.272 0.223,0.496 0.498,0.496 H 0.16 v 1.223 c 0,2.075 -1.391,3.46 -2.231,3.837 v 1.245 h 0.112 c 0.275,0 0.497,0.221 0.497,0.496 v 1.595 c 0,0.275 -0.222,0.497 -0.497,0.497 h -3.045 c -0.275,0 -0.497,-0.222 -0.497,-0.497 v -1.595 c 0,-0.275 0.222,-0.496 0.497,-0.496 h 0.111 V 18.721 C -5.732,18.3 -7.123,16.786 -7.123,14.894 V 0.728 c 0,-0.962 0.779,-1.742 1.74,-1.742 h 3.802 C -0.879,-1.014 -0.275,-0.6 0,0" />
      </g>
      <g
         transform="translate(41.1592,207.0059)"
         id="g2784">
        <path
           inkscape:connector-curvature="0"
           id="path2786"
           style="fill:#efece5;fill-opacity:1;fill-rule:nonzero;stroke:none"
           d="m 0,0 v -0.047 -4.185 -7.505 c 0,-0.792 0.644,-1.438 1.437,-1.438 h 4.857 c 0.102,0.222 0.16,0.467 0.16,0.728 V 0.496 H 0.498 C 0.223,0.496 0,0.272 0,0" />
      </g>
      <g
         transform="translate(44.3862,215.5127)"
         id="g2788">
        <path
           inkscape:connector-curvature="0"
           id="path2790"
           style="fill:#ffffff;fill-opacity:1;fill-rule:nonzero;stroke:none"
           d="m 0,0 c 0,-0.359 -0.415,-0.652 -0.926,-0.652 -0.51,0 -0.925,0.293 -0.925,0.652 0,0.358 0.415,0.651 0.925,0.651 C -0.415,0.651 0,0.358 0,0" />
      </g>
      <g
         transform="translate(44.3862,207.5234)"
         id="g2792">
        <path
           inkscape:connector-curvature="0"
           id="path2794"
           style="fill:#ffffff;fill-opacity:1;fill-rule:nonzero;stroke:none"
           d="m 0,0 c 0,-0.806 -0.892,-1.457 -1.626,-1.457 -0.734,0 -1.033,0.651 -1.033,1.457 0,0.807 0.596,1.46 1.329,1.46 C -0.595,1.46 0,0.807 0,0" />
      </g>
    </g>
  </g>
</svg>
