<?xml version="1.0" encoding="UTF-8" standalone="no"?>
<svg
   width="64pt"
   height="64pt"
   viewBox="0 0 22.577778 22.577778"
   version="1.1"
   id="svg831"
   inkscape:version="1.1.1 (1:1.1+202109281949+c3084ef5ed)"
   sodipodi:docname="06 - Green Tea.svg"
   inkscape:export-filename="/media/taufikramadhan/Data/Tr Design Studio/Project Design/TR Creative Design/Icon Design/Project Hiring/Icon Icons/013 - Drinks And Restaurants/Send/1 - Line/04 - Blender.png"
   inkscape:export-xdpi="576"
   inkscape:export-ydpi="576"
   xmlns:inkscape="http://www.inkscape.org/namespaces/inkscape"
   xmlns:sodipodi="http://sodipodi.sourceforge.net/DTD/sodipodi-0.dtd"
   xmlns="http://www.w3.org/2000/svg"
   xmlns:svg="http://www.w3.org/2000/svg"
   xmlns:rdf="http://www.w3.org/1999/02/22-rdf-syntax-ns#"
   xmlns:cc="http://creativecommons.org/ns#"
   xmlns:dc="http://purl.org/dc/elements/1.1/">
  <defs
     id="defs825">
    <pattern
       id="EMFhbasepattern"
       patternUnits="userSpaceOnUse"
       width="6"
       height="6"
       x="0"
       y="0" />
    <pattern
       id="EMFhbasepattern-9"
       patternUnits="userSpaceOnUse"
       width="6"
       height="6"
       x="0"
       y="0" />
    <pattern
       id="EMFhbasepattern-0"
       patternUnits="userSpaceOnUse"
       width="6"
       height="6"
       x="0"
       y="0" />
    <pattern
       id="EMFhbasepattern-7"
       patternUnits="userSpaceOnUse"
       width="6"
       height="6"
       x="0"
       y="0" />
    <pattern
       id="EMFhbasepattern-2"
       patternUnits="userSpaceOnUse"
       width="6"
       height="6"
       x="0"
       y="0" />
    <pattern
       id="EMFhbasepattern-98"
       patternUnits="userSpaceOnUse"
       width="6"
       height="6"
       x="0"
       y="0" />
    <pattern
       id="EMFhbasepattern-6"
       patternUnits="userSpaceOnUse"
       width="6"
       height="6"
       x="0"
       y="0" />
    <pattern
       id="EMFhbasepattern-01"
       patternUnits="userSpaceOnUse"
       width="6"
       height="6"
       x="0"
       y="0" />
    <pattern
       id="EMFhbasepattern-07"
       patternUnits="userSpaceOnUse"
       width="6"
       height="6"
       x="0"
       y="0" />
    <pattern
       id="EMFhbasepattern-8"
       patternUnits="userSpaceOnUse"
       width="6"
       height="6"
       x="0"
       y="0" />
    <pattern
       id="EMFhbasepattern-4"
       patternUnits="userSpaceOnUse"
       width="6"
       height="6"
       x="0"
       y="0" />
    <pattern
       id="EMFhbasepattern-40"
       patternUnits="userSpaceOnUse"
       width="6"
       height="6"
       x="0"
       y="0" />
    <pattern
       id="EMFhbasepattern-08"
       patternUnits="userSpaceOnUse"
       width="6"
       height="6"
       x="0"
       y="0" />
    <pattern
       id="EMFhbasepattern-04"
       patternUnits="userSpaceOnUse"
       width="6"
       height="6"
       x="0"
       y="0" />
    <pattern
       id="EMFhbasepattern-014"
       patternUnits="userSpaceOnUse"
       width="6"
       height="6"
       x="0"
       y="0" />
    <pattern
       id="EMFhbasepattern-27"
       patternUnits="userSpaceOnUse"
       width="6"
       height="6"
       x="0"
       y="0" />
    <pattern
       id="EMFhbasepattern-09"
       patternUnits="userSpaceOnUse"
       width="6"
       height="6"
       x="0"
       y="0" />
    <pattern
       id="EMFhbasepattern-5"
       patternUnits="userSpaceOnUse"
       width="6"
       height="6"
       x="0"
       y="0" />
    <pattern
       id="EMFhbasepattern-018"
       patternUnits="userSpaceOnUse"
       width="6"
       height="6"
       x="0"
       y="0" />
  </defs>
  <sodipodi:namedview
     id="base"
     pagecolor="#ffffff"
     bordercolor="#666666"
     borderopacity="1.0"
     inkscape:pageopacity="0.0"
     inkscape:pageshadow="2"
     inkscape:zoom="6.2578125"
     inkscape:cx="42.666667"
     inkscape:cy="42.666667"
     inkscape:document-units="pt"
     inkscape:current-layer="layer1"
     showgrid="false"
     units="pt"
     inkscape:window-width="1366"
     inkscape:window-height="705"
     inkscape:window-x="0"
     inkscape:window-y="31"
     inkscape:window-maximized="1"
     inkscape:pagecheckerboard="true"
     inkscape:showpageshadow="false"
     inkscape:object-paths="true"
     inkscape:snap-intersection-paths="true"
     inkscape:snap-smooth-nodes="true"
     inkscape:snap-midpoints="true"
     showguides="true"
     inkscape:snap-bbox="true"
     inkscape:bbox-nodes="true"
     inkscape:snap-nodes="false"
     inkscape:snap-global="true"
     inkscape:document-rotation="0">
    <inkscape:grid
       type="xygrid"
       id="grid1378" />
    <sodipodi:guide
       position="0.97013831,21.607643"
       orientation="78.000048,0"
       id="guide1380"
       inkscape:locked="false" />
    <sodipodi:guide
       position="0.97013831,0.97013129"
       orientation="0,78.000005"
       id="guide1382"
       inkscape:locked="false" />
    <sodipodi:guide
       position="21.607639,0.97013129"
       orientation="-78.000048,0"
       id="guide1384"
       inkscape:locked="false" />
    <sodipodi:guide
       position="21.607639,21.607643"
       orientation="0,-78.000005"
       id="guide1386"
       inkscape:locked="false" />
  </sodipodi:namedview>
  <metadata
     id="metadata828">
    <rdf:RDF>
      <cc:Work
         rdf:about="">
        <dc:format>image/svg+xml</dc:format>
        <dc:type
           rdf:resource="http://purl.org/dc/dcmitype/StillImage" />
      </cc:Work>
    </rdf:RDF>
  </metadata>
  <g
     inkscape:label="Icon"
     inkscape:groupmode="layer"
     id="layer1"
     transform="translate(0,-274.42223)">
    <g
       id="g15405"
       style="display:inline;stroke-width:0.794872"
       transform="matrix(1.2580641,0,0,1.2580641,-114.48551,-38.907638)"
       inkscape:export-filename="/media/taufikramadhan/Data/Tr Design Studio/Project Design/TR Creative Design/Icon Design/Project Hiring/Icon Icons/013 - Drinks And Restaurants/Send/4 - Filledline/06 - Green Tea.png"
       inkscape:export-xdpi="576"
       inkscape:export-ydpi="576">
      <g
         id="g922995"
         style="display:inline;stroke-width:0.794872">
        <path
           style="color:#000000;fill:#e2f0fa;stroke-width:0.794872;stroke-linecap:round;stroke-linejoin:round;-inkscape-stroke:none"
           d="m 103.70313,254.85742 a 0.26460996,0.26460996 0 0 0 -0.28711,0.25 l -0.0508,1.12695 a 0.26460996,0.26460996 0 0 0 0.27344,0.27735 c 0,0 0.42472,-0.0117 0.83594,0.16797 0.41122,0.17961 0.79102,0.49141 0.79102,1.29687 0,0.40075 -0.0464,0.80977 -0.36133,1.19922 -0.31497,0.38945 -0.92748,0.78072 -2.12891,1.04492 a 0.26460996,0.26460996 0 0 0 -0.19531,0.17969 l -0.41016,1.32031 a 0.26460996,0.26460996 0 0 0 0.33008,0.33008 c 1.82387,-0.56231 3.03485,-0.98361 3.7207,-1.94922 0.4462,-0.6282 0.63282,-1.45207 0.63282,-2.59961 0,-0.5898 -0.2082,-1.07418 -0.51563,-1.4375 -0.30743,-0.36332 -0.70575,-0.6127 -1.09375,-0.78906 -0.776,-0.35272 -1.54102,-0.41797 -1.54101,-0.41797 z"
           id="path843812" />
        <path
           style="color:#000000;fill:#3a4d5c;stroke-width:0.794872;stroke-linecap:round;stroke-linejoin:round;-inkscape-stroke:none"
           d="m 96.138672,263.48047 a 0.26460996,0.26460996 0 0 0 -0.03125,0.002 c -0.843362,0.10451 -1.551729,0.25488 -2.070313,0.44336 -0.259291,0.0942 -0.472883,0.1958 -0.638672,0.32422 -0.165788,0.12842 -0.302729,0.30533 -0.302734,0.52734 -2e-6,0.16561 0.08049,0.31186 0.185547,0.42188 0.105059,0.11001 0.238572,0.19734 0.396484,0.27734 0.315825,0.16001 0.737685,0.29173 1.253907,0.40235 1.032442,0.22123 2.434736,0.35351 3.984375,0.35351 1.549634,0 2.951934,-0.13228 3.984374,-0.35351 0.51622,-0.11062 0.94003,-0.24234 1.25586,-0.40235 0.15791,-0.08 0.28947,-0.16733 0.39453,-0.27734 0.10506,-0.11002 0.1875,-0.25627 0.1875,-0.42188 0,-0.22201 -0.1389,-0.39892 -0.30469,-0.52734 -0.16579,-0.12842 -0.37742,-0.22998 -0.63671,-0.32422 -0.51859,-0.18848 -1.22696,-0.33885 -2.07032,-0.44336 a 0.26460996,0.26460996 0 0 0 -0.0332,-0.002 z"
           id="path843788" />
        <path
           id="path887798"
           style="color:#000000;fill:#143441;fill-opacity:1;stroke-width:0.794872;stroke-linecap:round;stroke-linejoin:round;-inkscape-stroke:none"
           d="m 96.138838,263.48059 a 0.26460996,0.26460996 0 0 0 -0.03153,0.002 c -0.542951,0.0673 -1.029475,0.1536 -1.445905,0.25683 v 0.53485 c 0,0.12107 0.0586,0.22811 0.135392,0.30851 0.07681,0.0804 0.174464,0.14459 0.289904,0.20309 0.230886,0.11697 0.539356,0.21313 0.916742,0.29403 0.754769,0.16174 1.78013,0.25839 2.912999,0.25839 1.13288,0 2.15773,-0.0966 2.91249,-0.25839 0.37739,-0.0809 0.68741,-0.17706 0.91829,-0.29403 0.11544,-0.0585 0.21155,-0.12269 0.28835,-0.20309 0.0768,-0.0804 0.12806,-0.18777 0.13695,-0.30851 v -0.53485 c -0.41644,-0.10323 -0.90296,-0.18955 -1.44591,-0.25683 a 0.26460996,0.26460996 0 0 0 -0.0331,-0.002 z" />
        <path
           style="color:#000000;fill:#e2f0fa;stroke-width:0.794872;stroke-linecap:round;stroke-linejoin:round;-inkscape-stroke:none"
           d="m 98.933594,254.21875 c -1.717328,0.003 -3.439205,0.2231 -4.855469,0.64844 a 0.26460996,0.26460996 0 0 0 -0.1875,0.25195 c 0,2.77658 0.996996,6.62187 2.158203,8.91602 0.193335,0.38196 0.599701,0.60937 1.015625,0.60937 h 3.705077 c 0.41593,0 0.82229,-0.22741 1.01563,-0.60937 1.1612,-2.29415 2.1582,-6.13944 2.1582,-8.91602 a 0.26460996,0.26460996 0 0 0 -0.18359,-0.25195 c -1.39499,-0.43925 -3.10885,-0.65166 -4.826176,-0.64844 z"
           id="path843794" />
        <path
           id="path842108"
           style="fill:#badb94;fill-opacity:1;stroke:none;stroke-width:0.42062;stroke-linecap:round;stroke-linejoin:round;stroke-opacity:1;stop-color:#000000"
           d="m 93.937939,256.23039 c 0.210317,2.62277 1.098103,5.80359 2.110981,7.80469 0.193336,0.38196 0.599519,0.60927 1.015441,0.60927 h 3.705199 c 0.41593,0 0.8221,-0.22731 1.01544,-0.60927 1.01288,-2.0011 1.90067,-5.18192 2.11099,-7.80469 z" />
        <path
           id="path885213"
           style="fill:#9ccc65;fill-opacity:1;stroke-width:0.794872;stroke-linecap:round;stroke-linejoin:round"
           d="m 98.375393,257.99359 c -0.112826,-0.002 -0.225562,0.0185 -0.330213,0.061 0,0 -0.0019,0.002 -0.0021,0.002 -0.0034,10e-4 -0.912524,0.44177 -1.752348,1.23662 -0.920459,-0.70098 -1.868694,-1.04115 -1.876889,-1.04335 -0.06833,-0.0198 -0.138742,-0.0292 -0.209288,-0.0295 0.383916,2.11179 1.078088,4.3008 1.844331,5.81464 0.193337,0.38196 0.59952,0.60926 1.015442,0.60926 h 1.917198 c 0.658905,-0.37591 1.124604,-0.89466 1.409214,-1.41955 0.54857,-1.01167 0.52569,-2.01541 0.52555,-2.02158 -0.004,-0.3986 -0.33503,-0.76802 -0.7307,-0.81649 0,0 -0.34029,10e-4 -0.535372,-0.008 -0.143505,-1.11833 -0.575861,-1.97559 -0.577742,-1.97869 -0.134215,-0.22685 -0.382312,-0.38154 -0.644922,-0.40411 a 0.56708904,0.56708904 0 0 0 -0.0036,0 c -0.01609,-10e-4 -0.03246,-0.002 -0.04857,-0.003 z" />
        <path
           style="color:#000000;fill:#349951;stroke-width:0.794872;stroke-linecap:round;stroke-linejoin:round;-inkscape-stroke:none"
           d="m 94.255859,258.79492 a 0.26460996,0.26460996 0 0 0 -0.314453,0.14453 c 0,0 -0.446239,0.96996 -0.351562,2.16992 0.09468,1.19997 0.772252,2.64859 2.873047,3.51368 a 0.26460996,0.26460996 0 0 0 0.363281,-0.26172 l -0.259766,-4.03321 a 0.26460996,0.26460996 0 0 0 -0.07031,-0.16406 c -0.932418,-1.00494 -2.240235,-1.36914 -2.240235,-1.36914 z"
           id="path843818" />
        <path
           style="color:#000000;fill:#349951;stroke-width:0.794872;stroke-linecap:round;stroke-linejoin:round;-inkscape-stroke:none"
           d="m 100.11719,260.94922 c 0,0 -0.60487,-0.0741 -1.263674,0.0215 a 0.26460996,0.26460996 0 0 0 -0.173829,0.10547 l -2.330078,3.14453 a 0.26460996,0.26460996 0 0 0 0.207032,0.42188 c 1.861809,0.0461 2.864061,-0.81725 3.335937,-1.6875 0.471872,-0.87025 0.457032,-1.7461 0.457032,-1.7461 a 0.26460996,0.26460996 0 0 0 -0.23242,-0.25976 z"
           id="path843828" />
        <path
           style="color:#000000;fill:#50b86b;stroke-width:0.794872;stroke-linecap:round;stroke-linejoin:round;-inkscape-stroke:none"
           d="m 98.255859,258.58008 c 0,0 -1.12693,0.4519 -1.941406,1.42773 -0.407238,0.48792 -0.741892,1.11659 -0.796875,1.88086 -0.05498,0.76427 0.171247,1.65017 0.824219,2.63672 a 0.26460996,0.26460996 0 0 0 0.347656,0.0859 c 1.995536,-1.08607 2.513484,-2.59955 2.478516,-3.80274 -0.03497,-1.20318 -0.583985,-2.11914 -0.583985,-2.11914 a 0.26460996,0.26460996 0 0 0 -0.328125,-0.10937 z"
           id="path843834" />
        <path
           style="color:#000000;fill:#badb94;stroke-width:0.794872;stroke-linecap:round;stroke-linejoin:round;-inkscape-stroke:none"
           d="m 98.916016,255.30078 c -1.311751,0 -2.497707,0.0744 -3.369141,0.19727 -0.435725,0.0614 -0.790676,0.134 -1.056641,0.22265 -0.132982,0.0443 -0.244378,0.0911 -0.341797,0.15821 -0.09742,0.0671 -0.208965,0.17891 -0.208984,0.35156 -5e-6,0.17266 0.111567,0.28444 0.208984,0.35156 0.09742,0.0671 0.208816,0.11388 0.341797,0.1582 0.265963,0.0887 0.620916,0.16123 1.056641,0.22266 0.87145,0.12287 2.057382,0.19727 3.369141,0.19727 1.311754,0 2.499644,-0.0744 3.371094,-0.19727 0.43572,-0.0614 0.79068,-0.134 1.05664,-0.22266 0.13298,-0.0443 0.24438,-0.0911 0.3418,-0.1582 0.0974,-0.0671 0.20899,-0.1789 0.20898,-0.35156 -2e-5,-0.17265 -0.11156,-0.28445 -0.20898,-0.35156 -0.0974,-0.0671 -0.20882,-0.11388 -0.3418,-0.15821 -0.26597,-0.0887 -0.62092,-0.16122 -1.05664,-0.22265 -0.87144,-0.12285 -2.05934,-0.19727 -3.371094,-0.19727 z"
           id="path843844" />
      </g>
      <path
         id="path32712"
         style="color:#000000;fill:#000000;stroke-width:3.00424;stroke-linecap:round;stroke-linejoin:round;-inkscape-stroke:none"
         d="m 372.15234,-114.28516 c -0.21187,0.0123 -0.41434,0.0916 -0.57812,0.22657 0,0 -0.42949,0.37214 -0.75195,0.98828 -0.32247,0.61602 -0.61329,1.54053 -0.61329,2.7832 0,1.2426 0.3152,2.07977 0.56055,2.73242 0.24533,0.65269 0.44336,1.149 0.44336,2.26563 0,2.23336 -0.83398,3.44726 -0.83398,3.44726 -0.30844,0.45888 -0.18595,1.08098 0.27343,1.38868 0.46054,0.30557 1.08163,0.1796 1.38672,-0.28126 0,0 1.16797,-1.78799 1.16797,-4.55468 0,-1.38331 -0.30784,-2.28936 -0.5625,-2.9668 -0.25466,-0.67748 -0.43555,-1.09457 -0.43555,-2.03125 0,-0.93676 0.20724,-1.51239 0.38477,-1.85156 0.17752,-0.33903 0.25,-0.37695 0.25,-0.37695 0.42429,-0.34937 0.4871,-0.97568 0.14063,-1.40235 -0.20243,-0.24873 -0.51186,-0.38529 -0.83204,-0.36719 z m 6.125,2.21875 v 0.002 c -1.56779,0 -3.0703,1.27959 -3.07031,3.09179 1e-5,1.5656 1.27535,2.8711 2.8418,2.8711 0.55229,0.002 1.00175,-0.44381 1.0039,-0.9961 0.002,-0.55533 -0.44857,-1.00607 -1.0039,-1.0039 -0.46767,0 -0.8418,-0.36853 -0.8418,-0.8711 0,-0.69789 0.604,-1.09179 1.07031,-1.09179 0.80742,0 1.25452,0.22269 1.60938,0.66406 0.3549,0.44152 0.62109,1.21727 0.62109,2.39062 0,2.76087 -1.70703,5.12305 -1.70703,5.12305 -0.33448,0.44236 -0.2451,1.07242 0.19922,1.4043 0.44441,0.33279 1.07483,0.23985 1.4043,-0.20703 0,0 2.10351,-2.75543 2.10351,-6.32032 0,-1.46687 -0.32045,-2.72091 -1.06445,-3.64648 -0.74393,-0.92557 -1.90324,-1.41016 -3.16602,-1.41016 z m -12.06836,2.77735 c -0.26616,4e-5 -0.52132,0.10618 -0.70898,0.29492 -0.39173,0.39073 -0.39173,1.02529 0,1.41602 0,0 0.10073,0.073 0.29492,0.50976 0.19416,0.43691 0.41406,1.16459 0.41406,2.28125 0,1.11666 -0.21988,1.84438 -0.41406,2.28125 -0.19419,0.43691 -0.29492,0.50977 -0.29492,0.50977 -0.39172,0.39073 -0.39172,1.02528 0,1.41601 0.39073,0.39173 1.02529,0.39173 1.41602,0 0,0 0.40316,-0.42518 0.70898,-1.11328 0.30584,-0.68814 0.58398,-1.71044 0.58398,-3.09375 0,-1.38334 -0.27815,-2.40565 -0.58398,-3.09375 -0.30584,-0.6881 -0.70898,-1.11328 -0.70898,-1.11328 -0.18719,-0.18826 -0.44156,-0.29437 -0.70704,-0.29492 z m 9.16016,11.285154 c -0.44691,-0.0027 -0.89528,-0.002 -1.34375,0.002 -7.17553,0.06312 -14.34812,0.994305 -18.55859,2.796875 -0.36638,0.157337 -0.6043,0.517279 -0.60547,0.916016 0.003,4.02423 0.59264,8.517592 1.28515,12.224644 0.10248,0.545256 0.62925,0.902862 1.17383,0.796875 0.5416,-0.102607 0.89803,-0.624143 0.79688,-1.166016 -0.36566,-1.938783 -0.6401,-3.842806 -0.83203,-5.679687 0.98694,0.312837 2.27101,0.57234 3.83593,0.792969 3.29367,0.46439 7.77655,0.746093 12.73438,0.746093 4.9578,0 9.44852,-0.281703 12.74219,-0.746093 1.534,-0.216167 2.7982,-0.468965 3.77734,-0.773438 -0.14504,1.284653 -0.32948,2.598342 -0.54883,3.929688 l -1.79297,8.419921 c -1.3939,5.362663 -3.19916,10.450966 -5.11914,14.244141 -0.26645,0.526715 -1.41558,1.210938 -2.05273,1.210938 h -5.00586 c -0.55228,0.0022 -0.99825,0.451621 -0.99609,1.003906 0.002,0.549236 0.44685,0.99395 0.99609,0.996094 h 5.00586 c 1.57202,0 3.10715,-0.859107 3.83789,-2.302735 2.27858,0.327817 4.81386,0.710782 6.9238,1.46094 0.86086,0.312945 1.50747,0.651502 1.86914,0.93164 0.3617,0.280063 0.36914,0.418308 0.36914,0.41211 0,-0.0038 0.006,0.04514 -0.15625,0.214843 -0.16252,0.170079 -0.48538,0.406585 -0.95117,0.642578 -0.93166,0.471988 -2.40279,0.953364 -4.25196,1.34961 -3.69838,0.792491 -8.9054,1.293006 -14.64648,1.292969 -5.7411,0 -10.94032,-0.500478 -14.63867,-1.292969 -1.84918,-0.396246 -3.32618,-0.877622 -4.25782,-1.34961 -0.46581,-0.235842 -0.79072,-0.472499 -0.95312,-0.642578 -0.16241,-0.170078 -0.14649,-0.219757 -0.14648,-0.214843 0,0.0076 0.0356,-0.185219 0.51562,-0.515625 0.48007,-0.330331 1.29989,-0.707575 2.37695,-1.048828 0.52561,-0.167434 0.81707,-0.728023 0.65039,-1.253907 -0.1675,-0.525619 -0.72997,-0.817068 -1.25586,-0.65039 -1.19085,0.377196 -2.15905,0.790999 -2.9082,1.30664 -0.74914,0.515641 -1.38084,1.222443 -1.38086,2.16211 -1e-5,0.625927 0.30411,1.179879 0.70117,1.595703 0.39708,0.415786 0.90317,0.744513 1.5,1.046875 1.19367,0.604762 2.78721,1.103393 4.73829,1.521484 3.90214,0.836145 9.20168,1.335938 15.05859,1.335938 5.85688,0 11.15841,-0.499793 15.06055,-1.335938 1.95106,-0.418091 3.5524,-0.916722 4.74609,-1.521484 0.59682,-0.302362 1.09316,-0.631089 1.49023,-1.046875 0.39708,-0.415824 0.70899,-0.969776 0.70899,-1.595703 0,-0.839093 -0.52574,-1.506821 -1.15235,-1.992188 -0.6266,-0.485367 -1.42625,-0.87038 -2.40625,-1.226562 -1.31874,-0.479294 -4.78937,-1.090307 -6.67108,-1.400327 0.58993,-1.389138 1.72439,-4.292343 2.26679,-5.839908 6.6139,-2.049226 11.03773,-3.65277 13.5664,-7.21289 1.68643,-2.3743 2.39063,-5.48706 2.39063,-9.824219 0,-2.229165 -0.78728,-4.060416 -1.94922,-5.433594 -1.16194,-1.373178 -2.66636,-2.315864 -4.13281,-2.982422 -2.47513,-1.125032 -4.90038,-1.472449 -5.60352,-1.554687 -3.82256,-1.928843 -10.18651,-2.709917 -16.80078,-2.75 z m 15.37695,5.98828 c -1.00524,-0.335244 -2.50159,-0.607667 -4.1484,-0.839844 -3.29364,-0.464315 -7.78439,-0.746093 -12.74219,-0.746093 -4.28951,0.11648 -8.74456,0.197526 -12.73438,0.744094 -0.54527,0.07857 -0.9243,0.583358 -0.84765,1.128906 0.0776,0.546066 0.58269,0.926192 1.1289,0.84961 3.15444,-0.444662 7.57156,-0.72461 12.45313,-0.72461 4.88158,0 9.30654,0.279759 12.46094,0.72461 1.24048,0.218956 2.56352,0.403024 3.70507,0.791015 -1.30867,0.387537 -2.61459,0.627144 -3.70507,0.783206 -3.15444,0.444738 -7.57933,0.730469 -12.46094,0.730469 -4.88163,0 -9.29871,-0.285769 -12.45313,-0.730469 -1.5772,-0.222236 -2.84863,-0.48794 -3.64648,-0.753906 -0.29375,-0.09797 -0.51996,-0.201061 -0.66211,-0.277344 -0.0752,-1.074161 -0.12486,-2.124227 -0.14258,-3.134765 3.77211,-1.46177 10.36041,-2.472214 17.08985,-2.53125 5.54588,0 11.77136,0.317309 16.70504,2.509809 z m 2.09375,-1.117186 c 0.99666,0.183017 2.5558,0.55349 4.10547,1.257812 1.28357,0.583446 2.53305,1.384904 3.4336,2.449219 0.90058,1.064315 1.48437,2.371756 1.48437,4.142578 0,4.121348 -0.66956,6.748888 -2.03125,8.666015 -1.89415,2.666788 -5.41992,4.195411 -11.15039,6.027344 0.27238,-0.853518 0.53632,-1.720839 0.78906,-2.599609 4.44031,-1.059966 7.06337,-2.652755 8.56836,-4.513672 1.57183,-1.943471 1.81641,-4.095657 1.81641,-5.787109 0,-3.749518 -2.15415,-5.841701 -4.19336,-6.732422 -1.08657,-0.474583 -2.15651,-0.671205 -2.92188,-0.751953 z m -0.25976,4.15625 c 0.60721,0.06667 1.45283,0.220327 2.28515,0.583984 1.55422,0.678841 2.98829,1.858085 2.98829,4.902344 0,1.514645 -0.17495,3.061266 -1.36524,4.533203 -1.03768,1.283059 -2.93022,2.570151 -6.40625,3.541015 1.1839,-4.515319 2.07338,-9.211993 2.49805,-13.560546 z m -20.75391,7.695312 c -0.15849,-0.01321 -0.31784,0.01156 -0.46484,0.07227 0,0 -4.21468,1.691501 -7.28906,5.339843 -3.45293,-3.30881 -7.83008,-4.527343 -7.83008,-4.527343 -0.47683,-0.138123 -0.98182,0.0931 -1.1875,0.544922 0,0 -1.68791,3.66589 -1.33008,8.201171 0.35785,4.53532 2.91936,10.011619 10.85937,13.28125 0.11309,0.04556 0.23357,0.07005 0.35547,0.07227 v 0.002 c 7.03676,0.174236 10.82396,-3.089772 12.60743,-6.378906 1.78345,-3.289134 1.72656,-6.59961 1.72656,-6.59961 -0.004,-0.501127 -0.37953,-0.919542 -0.87696,-0.980468 v -0.002 c 0,0 -1.60236,-0.194616 -3.58398,-0.04687 6.7e-4,-0.162657 7.4e-4,-0.324497 -0.004,-0.484375 -0.13217,-4.547452 -2.20703,-8.009766 -2.20703,-8.009766 -0.16522,-0.277061 -0.45393,-0.457417 -0.77539,-0.484375 z m -0.64258,2.611328 c 0.40656,0.769172 1.5258,2.597004 1.62305,5.94336 0.10076,3.466981 -1.35927,7.494547 -6.34766,11.005859 0.9075,-4.170803 2.05712,-7.343342 3.51368,-11.597656 0.1782,-0.523956 -0.10249,-1.092839 -0.62696,-1.269532 -0.52181,-0.178771 -1.08976,0.09967 -1.26953,0.621094 -1.40147,4.093425 -2.55626,7.301385 -3.47656,11.392578 -1.10154,-2.244095 -1.70933,-4.294336 -1.58789,-5.982422 0.17219,-2.393726 1.20352,-4.369041 2.54687,-5.978515 2.30206,-2.75811 4.76306,-3.740183 5.625,-4.134766 z m -14.49023,0.8125 c 0.90302,0.301518 3.63961,1.07791 6.18164,3.615234 -0.59798,0.947724 -1.09871,2.000385 -1.43555,3.15625 -0.36934,-0.791021 -0.75175,-1.604836 -1.15234,-2.460937 -0.11312,-0.241134 -0.31766,-0.425937 -0.56836,-0.515625 -0.24752,-0.09071 -0.52021,-0.08069 -0.75977,0.0293 -0.50598,0.232063 -0.72413,0.83258 -0.48632,1.335937 0.92967,1.986794 1.76244,3.729438 2.52539,5.460938 0.0902,1.735679 0.55807,3.616479 1.5039,5.628906 -5.05326,-2.945532 -6.51551,-6.804471 -6.7832,-10.197266 -0.26219,-3.323187 0.64879,-5.230573 0.97461,-6.052734 z m 18.90234,7.533203 c 0.58073,-0.0022 1.01015,0.04942 1.41211,0.07813 -0.0348,0.758136 0.0193,2.330182 -1.21875,4.613282 -1.17465,2.166352 -3.17209,4.294337 -7.03906,5.052734 3.80016,-2.998855 5.44113,-6.494196 5.91211,-9.697266 0.35287,-0.03208 0.6606,-0.04582 0.93359,-0.04687 z"
         transform="matrix(0.26458334,0,0,0.26458334,0,280.06666)"
         sodipodi:nodetypes="ccsssscccsssscccccscscsssscccssscccccsscccsssccccccccccsscccccscscsccssssssscssccccssssssssssssccssssccccsccccscccscsccccccssssccsssccccsccccccccscccscccccccccscccccsscsccccccccssssccccss" />
    </g>
  </g>
</svg>
